# xmcd CD database file
#
# Track frame offsets:
#	150
#	11841
#	23546
#	33596
#	47986
#	61037
#	73791
#	88582
#	102239
#	115155
#	127371
#	138987
#	148093
#	162276
#	177051
#	190445
#
# Disc length: 2713 seconds
#
# Revision: 2
# Processed by: cddbd v1.5.2PL0 Copyright (c) Steve Scherf et al.
# Submitted via: CDex 1.51
#
DISCID=e50a9710
DTITLE=The Rat Pack - The Rat Pack_CD5 - Frank Sinatra
DYEAR=1953
DGENRE=Jazz
TTITLE0=The Birth Of The Blues 
TTITLE1=Lean Baby
TTITLE2=I've Got The World On A String 
TTITLE3=Don't Worry 'Bout Me
TTITLE4=South Of The Border
TTITLE5=Anytime, Anywhere
TTITLE6=My One And Only Love
TTITLE7=From Here To Eternity
TTITLE8=I Can Read Between The Lines
TTITLE9=A Foggy Day
TTITLE10=My Funny Valentine 
TTITLE11=They Can't Take Away That From Me
TTITLE12=Violets For Your Furs
TTITLE13=Like Someone In Love
TTITLE14=I Get A Kick Out Of You (Cole Porter)
TTITLE15=Little Girl Blue 
EXTD=YEAR: 1953
EXTT0=
EXTT1=
EXTT2=
EXTT3=
EXTT4=
EXTT5=
EXTT6=
EXTT7=
EXTT8=
EXTT9=
EXTT10=
EXTT11=
EXTT12=
EXTT13=
EXTT14=
EXTT15=
PLAYORDER=
